<svg xmlns="http://www.w3.org/2000/svg" width="317" height="83" stroke="#000" stroke-linecap="round" stroke-linejoin="round" fill="#fff" fill-rule="evenodd"><g stroke="none"><path d="M150.5 56.1674c-2.328.592-3.768.026-5.06-1.914l-9.188-12.712-1.328-1.76-10.73 14.514c-1.226 1.746-2.512 2.506-4.8 1.888l13.74-18.444-12.792-16.66c2.2-.428 3.72-.21 5.07 1.76l9.53 12.87 9.6-12.8c1.23-1.746 2.552-2.41 4.76-1.766l-4.96 6.576-6.72 8.75c-.8 1-.69 1.684.046 2.65l12.832 17.048zm-63.984-18.736l1.124-5.528c3.06-10.94 15.6-15.486 24.248-8.726 5.054 3.976 6.31 9.6 6.06 15.9H89.46c-.428 11.34 7.734 18.184 18.14 14.692 3.65-1.226 5.8-4.084 6.876-7.66.546-1.792 1.45-2.072 3.134-1.56-.86 4.472-2.8 8.208-6.9 10.546-6.126 3.5-14.87 2.368-19.47-2.496-2.74-2.822-3.872-6.398-4.38-10.222-.08-.632-.24-1.234-.36-1.84q.016-1.552.016-3.104zm2.996-.76h25.744c-.168-8.2-5.274-14.024-12.252-14.074-7.66-.06-13.16 5.626-13.492 14.074z" fill-rule="nonzero"/><path d="M191.3096 36.9305a5.678 5.678 0 1 1 11.3804 0 5.678 5.678 0 1 1-11.3804 0z" fill="#00d8ff"/></g><g stroke="#00d8ff" fill="none" stroke-width="2.7341"><path d="M197 25.3611c7.6398 0 14.737 1.0962 20.0883 2.9385 6.4475 2.2197 10.4117 5.5843 10.4117 8.6308 0 3.1759-4.2013 6.7491-11.125 9.0432-5.2346 1.7353-12.1229 2.6396-19.375 2.6396-7.4355 0-14.4765-.8498-19.77-2.6587-6.6973-2.2891-10.73-5.9098-10.73-9.0241 0-3.0218 3.785-6.3603 10.1419-8.5767 5.3712-1.8715 12.6437-2.9926 20.3582-2.9926z"/><path d="M186.9285 31.1791c3.8167-6.6181 8.3118-12.2185 12.581-15.9339 5.1439-4.4765 10.0389-6.2295 12.678-4.7077 2.7504 1.586 3.7478 7.0112 2.2762 14.1549-1.1117 5.4012-3.7697 11.8203-7.3927 18.1027-3.7146 6.4411-7.9681 12.116-12.1792 15.7969-5.3286 4.6581-10.4804 6.3439-13.1782 4.788-2.6178-1.5086-3.619-6.4562-2.3632-13.0703 1.0611-5.5885 3.7241-12.4478 7.5769-19.1307z"/><path d="M186.9381 42.812c-3.8276-6.6106-6.4335-13.3032-7.5201-18.8574-1.3094-6.692-.3836-11.8075 2.2531-13.3349 2.7476-1.5907 7.9459.2545 13.4 5.0973 4.1236 3.6613 8.358 9.1689 11.9915 15.4454 3.7254 6.4349 6.5175 12.9531 7.6036 18.4409 1.3744 6.943.2609 12.248-2.4334 13.8083-2.6151 1.514-7.4008-.0889-12.5039-4.4803-4.3115-3.7089-8.9244-9.443-12.7897-16.1194z"/></g><path d="M278.3418.8535c1.9127-1.1354 4.4039-1.1406 6.3149 0l28.8442 16.8968c1.808 1.0562 3.0174 3.1429 2.9989 5.3035v33.8967c.0136 2.25-1.3153 4.3867-3.2228 5.419l-28.7414 16.8158c-1.9522 1.1577-4.4935 1.0685-6.3848-.184l-8.6238-5.1714c-.5872-.363-1.2489-.6519-1.6635-1.2423.3665-.5122 1.0217-.5761 1.5541-.7997 1.1993-.3955 2.3006-1.0303 3.4023-1.6463.2786-.1978.6187-.122.8857.055l7.3565 4.4109c.5258.3148 1.0583-.1032 1.5078-.363l28.2205-16.5164c.3484-.1738.5409-.5573.5126-.9531l.0033-33.5474c.0399-.449-.2107-.8619-.6022-1.0456L282.0625 5.4399c-.3386-.2414-.7855-.2421-1.1248-.0017l-28.6384 16.7486c-.3901.1841-.6519.5901-.6054 1.0408v33.5491c-.034.3955.1732.771.5192.9411l7.6486 4.4796c1.4362.8017 3.1997 1.2781 4.7822.6638 1.3964-.5194 2.3753-1.9973 2.3487-3.535l.0098-33.3496c-.0348-.4935.4166-.9013.8792-.8548l3.6742.0034c.5111-.012.8627.5194.7996 1.0166l-.0083 33.5611c.0032 2.9814-1.1778 6.2255-3.8369 7.6843-3.2759 1.76-7.3249 1.3868-10.5612-.3008-2.8018-1.4503-5.4755-3.1618-8.2275-4.7155-1.9124-1.0266-3.2347-3.1718-3.2213-5.4201v-33.897c-.02-2.2053 1.2374-4.33 3.1018-5.3708L278.3418.8535zm8.3585 23.4805c4.1787-.279 8.6521-.1653 12.4124 1.9697 2.9114 1.636 4.5254 5.0696 4.5768 8.424-.0813.4524-.5374.702-.9539.671-1.2124-.0017-2.425.0171-3.6374-.0086-.5144.0205-.8133-.4712-.8778-.9428-.3484-1.6049-1.1924-3.1945-2.649-3.9687-2.236-1.161-4.8286-1.1026-7.267-1.0784-1.7799.098-3.6939.2579-5.202 1.3434-1.1577.8223-1.5094 2.4823-1.0961 3.8191.3894.9599 1.4579 1.2696 2.3322 1.5551 5.0357 1.3659 10.3721 1.23 15.3118 3.0276 2.0452.7328 4.0458 2.1574 4.7458 4.3781.9156 2.9763.5143 6.5339-1.5275 8.9233-1.6559 1.9662-4.0674 3.0364-6.4727 3.6176-3.1999.74-6.5206.7588-9.77.4302-3.0556-.3612-6.2353-1.1938-8.5942-3.3529-2.0172-1.8164-3.0023-4.6465-2.9045-7.3781.0234-.4613.4662-.783.8924-.7451l3.6627.0017c.4876-.0361.8491.4009.8741.8776.2253 1.5292.7795 3.1342 2.0652 4.0408 2.4814 1.6602 5.595 1.5465 8.4362 1.593 2.3539-.1083 4.9963-.1411 6.9173-1.7546 1.0135-.9203 1.3137-2.46 1.0398-3.7846-.2967-1.1183-1.4248-1.6395-2.3935-1.9802-4.9713-1.6309-10.3672-1.0391-15.2904-2.8834-1.9987-.7326-3.9315-2.1176-4.6994-4.2471-1.0714-3.0139-.5805-6.7418 1.6754-9.0506 2.1994-2.2964 5.3745-3.1808 8.3933-3.4974z" stroke="none" fill="#8cc84b"/><path d="M56.188 62.3409c.4794-4.0349.3357-4.6266 3.3102-3.973l.7551.067c2.2872.1051 5.2791-.3717 7.0368-1.1967 3.7838-1.774 6.0275-4.7358 2.2965-3.9575-8.5106 1.7739-9.0957-1.1378-9.0957-1.1378 8.9867-13.4726 12.7434-30.5746 9.5008-34.7609-8.8444-11.4186-24.1538-6.0189-24.41-5.8788l-.0816.0153c-1.6815-.3526-3.5634-.5632-5.6774-.5978-3.8514-.0639-6.7737 1.0202-8.9905 2.7191 0 0-27.3111-11.3689-26.0405 14.2974.2702 5.4599 7.7457 41.3145 16.6616 30.4847 3.2588-3.96 6.408-7.3084 6.408-7.3084 1.5638 1.0498 3.4361 1.5852 5.3997 1.3929l.1518-.1308c-.0475.4917-.0266.9726.0607 1.5419-2.2964 2.593-1.6217 3.0483-6.2137 4.0034-4.6458.9675-1.9164 2.6899-.1349 3.14 2.1604.5459 7.1583 1.3192 10.5362-3.4576l-.1346.5451c.901.7283.8401 5.2347.9679 8.4545s.3412 6.2247.9908 7.9962 1.4162 6.3343 7.4512 5.0274c5.0438-1.0921 8.9002-2.664 9.2516-17.2857" fill="#000" stroke-linecap="butt" stroke-width="6"/><path d="M69.5875 53.2804c-8.5114 1.7739-9.0965-1.1378-9.0965-1.1378 8.9867-13.4734 12.7433-30.5758 9.5014-34.7616-8.8444-11.4179-24.1545-6.0179-24.4099-5.8777l-.0823.0149c-1.6816-.3528-3.5634-.5628-5.6785-.5978-3.8513-.0637-6.7726 1.0202-8.9894 2.7188 0 0-27.3116-11.3684-26.0414 14.2977.2702 5.4603 7.7455 41.3148 16.6618 30.485 3.259-3.96 6.4077-7.3083 6.4077-7.3083 1.5639 1.0496 3.4362 1.5851 5.399 1.3928l.1525-.1308c-.0474.4918-.0257.9727.0611 1.5419-2.297 2.5931-1.6221 3.0484-6.2138 4.0033-4.6462.9675-1.9168 2.69-.1347 3.1401 2.1604.546 7.1586 1.3192 10.5357-3.4575l-.1346.545c.9.7283 1.5319 4.7376 1.426 8.372s-.1766 6.1298.5325 8.0787 1.4159 6.3343 7.4522 5.0274c5.0438-1.0921 7.6576-3.9222 8.0212-8.643.258-3.3563.8419-2.8602.8788-5.8607l.4684-1.4206c.5401-4.5495.0858-6.0173 3.1933-5.3346l.7551.067c2.2872.1051 5.2806-.3717 7.0374-1.1967 3.7831-1.774 6.0268-4.7358 2.2966-3.9575z" fill="#336791" stroke="none"/><g fill="none" stroke="#fff" stroke-width="2"><path d="M38.0258 55.8882c-.2344 8.4655.0589 16.99.8787 19.0617s2.5758 6.1014 8.6125 4.7947c5.0434-1.0925 6.8784-3.2066 7.6747-7.8731.5865-3.4333 1.7171-12.9683 1.8621-14.9219M30.7902 13.4501S3.4599 2.1636 4.7305 27.8297c.2702 5.4603 7.746 41.3161 16.6622 30.4857 3.2582-3.9605 6.2049-7.0668 6.2049-7.0668M45.5525 11.39c-.9461.2998 15.2028-5.9648 24.3803 5.8841 3.2418 4.186-.5149 21.2884-9.5014 34.7621m-.0001-.0001s.5856 2.9126 9.0972 1.1375c3.7293-.7783 1.4849 2.1838-2.2973 3.9587-3.1041 1.4555-10.0633 1.8286-10.177-.1828-.2926-5.1896 3.6627-3.613 3.3773-4.9134-.258-1.1711-2.027-2.3205-3.197-5.1866-1.0215-2.5018-14.0095-21.6868 3.6019-18.8375.6452-.1349-4.5933-16.9258-21.075-17.1988s-15.9376 20.475-15.9376 20.475"/><path d="M33.4129 53.811c-2.2973 2.5929-1.6217 3.0482-6.2137 4.0035-4.6463.9677-1.9165 2.6899-.1349 3.1398 2.1604.5462 7.1585 1.3195 10.5358-3.4585 1.0283-1.4546-.0061-3.7758-1.4189-4.3676-.6826-.2856-1.5952-.6437-2.7683.6828zm-.1504-.0453c-.2315-1.5245.4958-3.3386 1.2751-5.4609 1.1713-3.1844 3.8737-6.3693 1.7119-16.4706-1.6113-7.5274-12.419-1.5666-12.4258-.5459s.4888 5.1734-.1806 10.0097c-.8734 6.3107 3.9743 11.6481 9.5566 11.1021m-2.5089-21.2648c-.0487.3486.6316 1.2788 1.5187 1.4031s1.6437-.6021 1.6918-.9503-.6315-.7327-1.519-.8575-1.6445.057-1.6914.4047zm26.9755-.7107c.048.3486-.6315 1.2788-1.5188 1.403s-1.6444-.6021-1.6929-.9503.6328-.7327 1.5193-.8574 1.6443.0569 1.6924.4048zm3.17-2.4125c.1461 2.7344-.5829 4.5969-.6748 7.5078-.136 4.2309 1.9965 9.0737-1.2167 13.9224"/></g></svg>